<?xml version="1.0" encoding="UTF-8" standalone="no"?>
<svg xmlns="http://www.w3.org/2000/svg" xmlns:xlink="http://www.w3.org/1999/xlink" version="1.1" width="700" height="700" viewBox="681 96 700 700"><defs><radialGradient cx="1053.3255" cy="416.57195" r="23.695" gradientUnits="userSpaceOnUse" id="color-1"><stop offset="0" stop-color="#2e2e2e"/><stop offset="0.6" stop-color="#222222"/><stop offset="1" stop-color="#181818"/></radialGradient><radialGradient cx="1003.93545" cy="416.572" r="23.695" gradientUnits="userSpaceOnUse" id="color-2"><stop offset="0" stop-color="#2e2e2e"/><stop offset="0.6" stop-color="#222222"/><stop offset="1" stop-color="#181818"/></radialGradient><radialGradient cx="1103.7225" cy="416.572" r="23.695" gradientUnits="userSpaceOnUse" id="color-3"><stop offset="0" stop-color="#2e2e2e"/><stop offset="0.6" stop-color="#222222"/><stop offset="1" stop-color="#181818"/></radialGradient><radialGradient cx="941.0867" cy="616.94582" r="15" gradientUnits="userSpaceOnUse" id="color-4"><stop offset="0" stop-color="#3e3e3e"/><stop offset="0.6" stop-color="#333333"/><stop offset="1" stop-color="#282828"/></radialGradient><radialGradient cx="988.0867" cy="663.94582" r="15" gradientUnits="userSpaceOnUse" id="color-5"><stop offset="0" stop-color="#3e3e3e"/><stop offset="0.6" stop-color="#333333"/><stop offset="1" stop-color="#282828"/></radialGradient><radialGradient cx="941.0867" cy="710.94582" r="15" gradientUnits="userSpaceOnUse" id="color-6"><stop offset="0" stop-color="#3e3e3e"/><stop offset="0.6" stop-color="#333333"/><stop offset="1" stop-color="#282828"/></radialGradient><radialGradient cx="894.0867" cy="663.94582" r="15" gradientUnits="userSpaceOnUse" id="color-7"><stop offset="0" stop-color="#3e3e3e"/><stop offset="0.6" stop-color="#333333"/><stop offset="1" stop-color="#282828"/></radialGradient><radialGradient cx="954.5385" cy="416.572" r="23.695" gradientUnits="userSpaceOnUse" id="color-8"><stop offset="0" stop-color="#2e2e2e"/><stop offset="0.6" stop-color="#222222"/><stop offset="1" stop-color="#181818"/></radialGradient></defs><g id="document" fill="#ffffff" fill-rule="nonzero" font-family="none" font-weight="none" font-size="none"><rect x="681" y="68.57143" transform="scale(1,1.4)" width="700" height="500" id="Shape-1-1"/></g><g fill="none" fill-rule="nonzero" stroke="none" stroke-width="none" stroke-linecap="butt" stroke-linejoin="miter" stroke-miterlimit="10" font-family="none" font-weight="none" font-size="none"><g><g id="stage"><g id="layer1-1"><g id="Group-1" stroke="none" stroke-width="1"><g id="Group-1-1" fill="none" font-family="sans-serif" font-weight="normal" font-size="12" text-anchor="start"><g id="Group-1-2"/></g><g id="Group-1-3"><g id="Group-1-4"><g id="Group-1-5" fill="#ffffff"><path d="M956.901,447.004c13.1,0 23.705,10.606 23.705,23.682c0,13.077 -10.605,23.682 -23.705,23.682c-13.082,0 -23.688,-10.605 -23.688,-23.682c0,-13.076 10.606,-23.682 23.688,-23.682z" id="Path-1"/></g><g id="Group-1-6" fill="#c64ab5"><path d="M965.661,485.839l-2.778,-7.663h-12.128l-2.645,7.663h-5.481l11.467,-30.309h5.583l11.512,30.309zM956.871,460.083h-0.129c-0.107,0.847 -0.238,1.577 -0.45,2.174l-4.137,11.679h9.293l-4.163,-11.679c-0.132,-0.366 -0.283,-1.09 -0.414,-2.174z" id="CompoundPath-1"/></g></g><g id="Group-1-7"><g id="Group-1-8" fill="#ffffff"><path d="M1006.297,447.002c13.097,0 23.703,10.61 23.703,23.687c0,13.077 -10.606,23.682 -23.703,23.682c-13.085,0 -23.69,-10.606 -23.69,-23.683c0,-13.077 10.605,-23.686 23.69,-23.686z" id="Path-1-1"/></g><g id="Group-1-9" fill="#3ed8d2"><path d="M1016.501,477.011c0,2.628 -0.985,4.783 -2.925,6.385c-1.957,1.633 -4.47,2.437 -7.566,2.437h-9.908v-30.301h9.572c2.898,0 5.194,0.646 6.867,1.884c1.684,1.266 2.523,2.952 2.523,5.089c0,1.646 -0.504,3.096 -1.5,4.348c-1.014,1.28 -2.322,2.15 -3.956,2.67v0.091c2.164,0.274 3.842,1.075 5.069,2.372c1.199,1.326 1.824,2.982 1.824,5.025zM1009.732,463.472c0,-1.205 -0.454,-2.144 -1.332,-2.795c-0.907,-0.649 -2.224,-0.973 -3.979,-0.973h-3.277v8.383h3.232c1.693,0 3.021,-0.4 3.955,-1.201c0.926,-0.8 1.401,-1.92 1.401,-3.414zM1011.166,476.875c0,-1.449 -0.508,-2.585 -1.558,-3.409c-1.051,-0.814 -2.595,-1.206 -4.674,-1.206h-3.79v9.413h4.239c1.801,0 3.212,-0.438 4.237,-1.308c1.044,-0.856 1.546,-2.027 1.546,-3.49z" id="CompoundPath-1-1"/></g></g><g id="Group-1-10"><g id="Group-1-11" fill="#ffffff"><path d="M1105.082,447c13.1,0 23.705,10.614 23.705,23.69c0,13.077 -10.605,23.682 -23.705,23.682c-13.082,0 -23.688,-10.605 -23.688,-23.682c0,-13.076 10.606,-23.69 23.688,-23.69z" id="Path-1-2"/></g><g id="Group-1-12" fill="#0311de"><path d="M1107.479,474.847v10.987h-4.997v-10.864l-9.847,-19.436h5.721l6.095,12.646c0.213,0.411 0.339,0.783 0.438,1.121c0.099,0.336 0.176,0.61 0.256,0.825h0.045c0.151,-0.642 0.373,-1.275 0.695,-1.903l6.323,-12.689h5.319z" id="Path-1-3"/></g></g><g id="Group-1-13"><g id="Group-1-14" fill="#ffffff"><path d="M1055.683,447.002c13.105,0 23.711,10.61 23.711,23.687c0,13.077 -10.605,23.683 -23.711,23.683c-13.076,0 -23.683,-10.606 -23.683,-23.683c0,-13.077 10.607,-23.687 23.683,-23.687z" id="Path-1-4"/></g><g id="Group-1-15" fill="#ff8e43"><path d="M1062.803,485.833l-6.406,-11.019c-0.132,-0.288 -0.242,-0.532 -0.309,-0.763c-0.049,-0.258 -0.121,-0.502 -0.212,-0.763h-0.092c-0.116,0.275 -0.19,0.523 -0.267,0.775c-0.077,0.222 -0.187,0.462 -0.336,0.75l-6.523,11.019h-6.123l10.137,-15.189l-9.26,-15.111h6.186l5.401,9.954c0.519,0.885 0.861,1.64 1.048,2.266h0.073c0.305,-0.793 0.537,-1.311 0.657,-1.56c0.109,-0.237 2.209,-3.797 6.27,-10.66h5.674l-9.459,15.02l9.581,15.281z" id="Path-1-5"/></g></g></g><g id="Group-1-16" fill="none" font-family="sans-serif" font-weight="normal" font-size="12" text-anchor="start"/><g id="Group-1-17" fill="none" font-family="sans-serif" font-weight="normal" font-size="12" text-anchor="start"/><g id="Group-1-18" fill="none" font-family="sans-serif" font-weight="normal" font-size="12" text-anchor="start"/><g id="Group-1-19" fill="none" font-family="sans-serif" font-weight="normal" font-size="12" text-anchor="start"/><g id="Group-1-20" fill="none" font-family="sans-serif" font-weight="normal" font-size="12" text-anchor="start"/><g id="Group-1-21" fill="none" font-family="sans-serif" font-weight="normal" font-size="12" text-anchor="start"/><g id="Group-1-22" fill="none" font-family="sans-serif" font-weight="normal" font-size="12" text-anchor="start"/><g id="Group-1-23" fill="none" font-family="sans-serif" font-weight="normal" font-size="12" text-anchor="start"/><g id="Group-1-24" fill="none" font-family="sans-serif" font-weight="normal" font-size="12" text-anchor="start"/><g id="Group-1-25" fill="none" font-family="sans-serif" font-weight="normal" font-size="12" text-anchor="start"/><g id="Group-1-26" fill="none" font-family="sans-serif" font-weight="normal" font-size="12" text-anchor="start"/><g id="Group-1-27" fill="none" font-family="sans-serif" font-weight="normal" font-size="12" text-anchor="start"/><g id="Group-1-28" fill="none" font-family="sans-serif" font-weight="normal" font-size="12" text-anchor="start"/><g id="Group-1-29" fill="none" font-family="sans-serif" font-weight="normal" font-size="12" text-anchor="start"/><g id="Group-1-30" fill="none" font-family="sans-serif" font-weight="normal" font-size="12" text-anchor="start"/></g><g id="Group-1-31"><g id="Group-1-32"><path d="M1032,421.30795c0,-13.0781 10.60861,-23.68 23.695,-23.68c13.08639,0 23.695,10.6019 23.695,23.68c0,13.0781 -10.60861,23.68 -23.695,23.68c-13.08639,0 -23.695,-10.6019 -23.695,-23.68z" id="Shape-1" fill="url(#color-1)" stroke="#1a1a1a" stroke-width="1.2"/><path d="M1035.15934,421.30795c0,-11.33436 9.19412,-20.52267 20.53566,-20.52267c11.34154,0 20.53567,9.18831 20.53567,20.52267c0,11.33436 -9.19413,20.52267 -20.53567,20.52267c-11.34154,0 -20.53566,-9.18831 -20.53566,-20.52267z" id="Shape-1-2" fill="none" stroke="#252525" stroke-width="0.5"/><text x="668.30097" y="269.97918" transform="scale(1.57967,1.57867)" id="PointText-1" fill="#4a4a4a" stroke="none" stroke-width="1" font-family="'Segoe UI', Arial, sans-serif" font-weight="600" font-size="10" text-anchor="middle">X</text></g><g id="Group-1-33"><path d="M982.6099,421.308c0,-13.07813 10.60864,-23.68005 23.69505,-23.68005c13.08641,0 23.69505,10.60192 23.69505,23.68005c0,13.07813 -10.60864,23.68005 -23.69505,23.68005c-13.08641,0 -23.69505,-10.60192 -23.69505,-23.68005z" id="Shape-1-3" fill="url(#color-2)" stroke="#1a1a1a" stroke-width="1.2"/><path d="M985.76924,421.308c0,-11.33438 9.19415,-20.52271 20.53571,-20.52271c11.34156,0 20.53571,9.18833 20.53571,20.52271c0,11.33438 -9.19415,20.52271 -20.53571,20.52271c-11.34156,0 -20.53571,-9.18833 -20.53571,-20.52271z" id="Shape-1-4" fill="none" stroke="#252525" stroke-width="0.5"/><text x="637.03492" y="269.97918" transform="scale(1.57967,1.57867)" id="PointText-1-1" fill="#4a4a4a" stroke="none" stroke-width="1" font-family="'Segoe UI', Arial, sans-serif" font-weight="600" font-size="10" text-anchor="middle">B</text></g><g id="Group-1-34" fill="none" stroke="none" stroke-width="1" font-family="sans-serif" font-weight="normal" font-size="12" text-anchor="start"/><g id="Group-1-35"><path d="M1082.397,421.308c0,-13.0781 10.60861,-23.68 23.695,-23.68c13.08639,0 23.695,10.6019 23.695,23.68c0,13.0781 -10.60861,23.68 -23.695,23.68c-13.08639,0 -23.695,-10.6019 -23.695,-23.68z" id="Shape-1-5" fill="url(#color-3)" stroke="#1a1a1a" stroke-width="1.2"/><path d="M1085.55633,421.308c0,-11.33436 9.19413,-20.52267 20.53567,-20.52267c11.34154,0 20.53567,9.18831 20.53567,20.52267c0,11.33436 -9.19413,20.52267 -20.53567,20.52267c-11.34154,0 -20.53567,-9.18831 -20.53567,-20.52267z" id="Shape-1-6" fill="none" stroke="#252525" stroke-width="0.5"/><text x="700.20447" y="269.97918" transform="scale(1.57967,1.57867)" id="PointText-1-2" fill="#4a4a4a" stroke="none" stroke-width="1" font-family="'Segoe UI', Arial, sans-serif" font-weight="600" font-size="10" text-anchor="middle">Y</text></g><g id="Group-1-36" visibility="hidden"><circle cx="942.5867" cy="619.94582" r="15" id="Shape-1-7" fill="url(#color-4)" stroke="#2a2a2a" stroke-width="1.2"/><circle cx="942.5867" cy="619.94582" r="13" id="Shape-1-8" fill="none" stroke="#353535" stroke-width="0.5"/><text x="942.5867" y="624.44582" id="PointText-1-3" fill="#888888" stroke="none" stroke-width="1" font-family="'Segoe UI', Arial, sans-serif" font-weight="600" font-size="10" text-anchor="middle">X</text></g><g id="Group-1-37" visibility="hidden"><circle cx="989.5867" cy="666.94582" r="15" id="Shape-1-9" fill="url(#color-5)" stroke="#2a2a2a" stroke-width="1.2"/><circle cx="989.5867" cy="666.94582" r="13" id="Shape-1-10" fill="none" stroke="#353535" stroke-width="0.5"/><text x="989.5867" y="671.44582" id="PointText-1-4" fill="#888888" stroke="none" stroke-width="1" font-family="'Segoe UI', Arial, sans-serif" font-weight="600" font-size="10" text-anchor="middle">B</text></g><g id="Group-1-38" visibility="hidden"><circle cx="942.5867" cy="713.94582" r="15" id="Shape-1-11" fill="url(#color-6)" stroke="#2a2a2a" stroke-width="1.2"/><circle cx="942.5867" cy="713.94582" r="13" id="Shape-1-12" fill="none" stroke="#353535" stroke-width="0.5"/><text x="942.5867" y="718.44582" id="PointText-1-5" fill="#888888" stroke="none" stroke-width="1" font-family="'Segoe UI', Arial, sans-serif" font-weight="600" font-size="10" text-anchor="middle">A</text></g><g id="Group-1-39" visibility="hidden"><circle cx="895.5867" cy="666.94582" r="15" id="Shape-1-13" fill="url(#color-7)" stroke="#2a2a2a" stroke-width="1.2"/><circle cx="895.5867" cy="666.94582" r="13" id="Shape-1-14" fill="none" stroke="#353535" stroke-width="0.5"/><text x="895.5867" y="671.44582" id="PointText-1-6" fill="#888888" stroke="none" stroke-width="1" font-family="'Segoe UI', Arial, sans-serif" font-weight="600" font-size="10" text-anchor="middle">Y</text></g><g id="Group-15070-1"><path d="M933.213,421.308c0,-13.0781 10.60861,-23.68 23.695,-23.68c13.08639,0 23.695,10.6019 23.695,23.68c0,13.0781 -10.60861,23.68 -23.695,23.68c-13.08639,0 -23.695,-10.6019 -23.695,-23.68z" id="Shape-1-1-1" fill="url(#color-8)" stroke="#1a1a1a" stroke-width="1.2"/><path d="M936.37233,421.308c0,-11.33436 9.19413,-20.52267 20.53567,-20.52267c11.34154,0 20.53567,9.18831 20.53567,20.52267c0,11.33436 -9.19413,20.52267 -20.53567,20.52267c-11.34154,0 -20.53567,-9.18831 -20.53567,-20.52267z" id="Shape-1-1-1-1" fill="none" stroke="#252525" stroke-width="0.5"/><text x="605.7645" y="269.97918" transform="scale(1.57967,1.57867)" id="PointText-1-1-1" fill="#4a4a4a" stroke="none" stroke-width="1" font-family="'Segoe UI', Arial, sans-serif" font-weight="600" font-size="10" text-anchor="middle">A</text></g></g></g></g></g></g></svg>